<svg
              width="14"
              height="15"
              viewBox="0 0 14 15"
              fill="none"
              xmlns="http://www.w3.org/2000/svg"
            >
              <path
                d="M8.2858 7.56301L5.2383 4.51551C5.17739 4.46005 5.12823 4.39293 5.09373 4.31812C5.05923 4.24332 5.04008 4.16236 5.03743 4.08002C5.03478 3.99769 5.04867 3.91566 5.07828 3.83879C5.1079 3.76192 5.15263 3.69178 5.20984 3.6325C5.26705 3.57323 5.33557 3.52604 5.41134 3.49372C5.48711 3.46141 5.5686 3.44462 5.65097 3.44435C5.73335 3.44409 5.81494 3.46036 5.89092 3.49219C5.96689 3.52402 6.03571 3.57077 6.0933 3.62968L6.1083 3.64468L9.59163 7.12718C9.7071 7.24266 9.77196 7.39929 9.77196 7.56259C9.77196 7.7259 9.7071 7.88252 9.59163 7.99801L6.10913 11.4805C6.05294 11.5387 5.98584 11.5852 5.91166 11.6174C5.83748 11.6497 5.75769 11.667 5.67682 11.6684C5.59596 11.6698 5.51561 11.6552 5.44037 11.6256C5.36513 11.5959 5.29646 11.5517 5.2383 11.4955C5.18013 11.4393 5.13361 11.3722 5.10138 11.298C5.06914 11.2239 5.05184 11.1441 5.05044 11.0632C5.04905 10.9823 5.0636 10.902 5.09326 10.8267C5.12292 10.7515 5.1671 10.6828 5.2233 10.6247L5.2383 10.6097L8.2858 7.56301Z"
                fill="#6F1DF4"
                stroke="#6F1DF4"
                stroke-width="0.416667"
              />
            </svg>