<svg xmlns="http://www.w3.org/2000/svg" width="20" height="21" viewBox="0 0 20 21" fill="none">
  <path d="M10 1.86279C5.17405 1.86279 1.24805 5.78879 1.24805 10.6148C1.24805 15.4408 5.17405 19.3668 10 19.3668C14.826 19.3668 18.752 15.4408 18.752 10.6148C18.752 5.78879 14.826 1.86279 10 1.86279ZM12.474 7.38779C12.474 7.47379 12.404 7.54379 12.317 7.54379L11.322 7.54479C10.666 7.54479 10.546 7.79979 10.546 8.30379V9.34779H12.252C12.297 9.34779 12.34 9.36779 12.369 9.40079C12.399 9.43479 12.413 9.47979 12.407 9.52479L12.164 11.4048C12.154 11.4828 12.088 11.5408 12.009 11.5408H10.546V16.2098C10.546 16.2958 10.476 16.3658 10.39 16.3658H8.44905C8.36205 16.3658 8.29205 16.2958 8.29205 16.2098V11.5408H6.82405C6.73805 11.5408 6.66805 11.4708 6.66805 11.3848V9.50479C6.66805 9.41779 6.73805 9.34779 6.82405 9.34779H8.29205V8.11779C8.29205 6.48779 9.27905 5.47579 10.866 5.47579C11.549 5.47579 12.152 5.52679 12.338 5.55079C12.415 5.56179 12.474 5.62779 12.474 5.70579V7.38779Z" fill="white"/>
</svg>