<svg xmlns="http://www.w3.org/2000/svg" width="133" height="103" viewBox="0 0 133 103" fill="none">
  <g filter="url(#filter0_d_529_1697)">
    <path d="M85.7455 17.2913C87.1515 17.0767 88.4084 16.7946 89.6816 16.7068C96.3154 16.2469 102.162 21.1804 102.921 27.8203C103.671 34.3969 98.9845 40.622 92.3977 41.4762C89.9412 41.7951 87.4029 41.5294 84.7768 41.5294V30.0377H73.001V28.8933C73.001 23.6716 72.9643 18.4521 73.0133 13.2345C73.0542 8.8447 71.5562 5.11498 68.4109 2.03514C68.3006 1.93091 68.2127 1.8042 68.041 1.59984C72.2428 -0.347798 76.3731 -0.413195 80.2459 1.98609C86.0091 5.55846 87.4438 10.868 85.7496 17.2872L85.7455 17.2913Z" fill="#1730BE"/>
    <path d="M46.3697 56.5788C45.5216 56.7321 44.9126 56.8118 44.3138 56.9487C37.7801 58.4529 31.3425 54.5331 29.4766 48.1078C27.6066 41.662 31.7431 34.2843 38.2951 32.9007C40.9601 32.3407 43.7824 32.5226 46.5312 32.3816C47.2444 32.3448 47.0952 32.9089 47.0993 33.3156C47.1075 36.5323 47.1402 39.7552 47.083 42.972C47.0666 43.9121 47.3997 44.1287 48.2744 44.1164C51.483 44.0756 54.6855 44.1205 57.892 44.0837C58.638 44.0756 58.8607 44.2983 58.8587 45.0443C58.8301 50.2332 58.8587 55.418 58.8383 60.6069C58.8219 64.9273 60.2034 68.6816 63.2649 71.7859C63.412 71.9351 63.5244 72.117 63.7268 72.3868C59.7865 74.2363 55.9628 74.1852 52.2004 72.2212C49.4271 70.7743 47.5081 68.5201 46.3861 65.6099C45.258 62.6854 45.4603 59.7384 46.3697 56.5748V56.5788Z" fill="#00E7EC"/>
    <path d="M30.3871 34.724C28.4967 30.7368 28.4803 26.7966 30.6977 23.1118C34.2456 17.2219 39.6266 15.7014 46.2931 17.4712C46.1316 16.5965 46.0254 15.8751 45.8598 15.17C44.4926 9.38845 48.2264 2.84048 53.9447 1.0073C60.789 -1.18558 67.5597 2.04753 69.961 8.76717C70.4229 10.0629 70.4924 11.5139 70.5925 12.9036C70.6988 14.3362 70.568 15.7791 70.6416 17.2137C70.6865 18.0884 70.3411 18.2458 69.5502 18.2376C66.3151 18.2008 63.0799 18.2417 59.8448 18.2049C59.058 18.1988 58.8107 18.4604 58.8188 19.2268C58.8515 22.4108 58.8066 25.599 58.8515 28.7851C58.8618 29.6189 58.6717 29.9091 57.7684 29.9009C52.6469 29.858 47.5254 29.9091 42.404 29.8723C37.9896 29.8417 34.1577 31.2048 30.9818 34.301C30.8367 34.4461 30.6425 34.5421 30.3953 34.7159L30.3871 34.724Z" fill="#FFBE8F"/>
    <path d="M101.568 39.2671C103.12 42.5206 103.346 45.7292 102.163 48.9991C100.968 52.2935 98.7297 54.6642 95.5293 56.1561C92.3514 57.6357 89.0958 57.4579 85.6603 56.5097C85.8095 57.3415 85.8954 57.977 86.0405 58.5983C87.5508 65.0012 83.6207 71.5124 77.0769 73.3026C70.4471 75.1154 63.3596 71.0955 61.8596 64.429C61.271 61.8233 61.4938 59.0336 61.3609 56.3278C61.3282 55.6922 61.8228 55.7842 62.2234 55.7842H71.655C72.6461 55.7842 73.1428 55.2937 73.1428 54.3086C73.1428 51.2451 73.1673 48.1816 73.1264 45.1161C73.1182 44.3518 73.3226 44.1004 74.1196 44.1086C79.2779 44.1413 84.4321 44.1086 89.5904 44.1331C93.9965 44.1576 97.8448 42.8068 101.004 39.686C101.133 39.5614 101.295 39.4674 101.562 39.2712L101.568 39.2671Z" fill="#5A6CFF"/>
    <path d="M3.92291 100.849H0V83.1147H3.92291V100.849ZM6.69608 100.849H1.07367V97.2746H6.64584C7.83003 97.2746 8.78169 97.1281 9.49508 96.8381C10.2085 96.5451 10.7338 96.0187 11.0668 95.2486C11.397 94.4829 11.5649 93.3924 11.5649 91.9799C11.5649 90.5674 11.3998 89.4768 11.0668 88.7111C10.7338 87.9454 10.2128 87.4146 9.49508 87.1217C8.77882 86.8287 7.83003 86.6866 6.64584 86.6866H1.07367V83.1147H6.69608C8.58074 83.1147 10.1955 83.4686 11.5477 84.1734C12.9012 84.8782 13.9405 85.8934 14.6739 87.2174C15.4074 88.5414 15.7749 90.128 15.7749 91.9799C15.7749 93.8318 15.4074 95.4227 14.6739 96.7438C13.9405 98.0679 12.9012 99.083 11.5477 99.7878C10.1955 100.493 8.58074 100.845 6.69608 100.845V100.849ZM23.9882 101.115C22.5757 101.115 21.3643 100.832 20.3509 100.266C19.3375 99.7022 18.5682 98.8988 18.0356 97.8561C17.5045 96.8149 17.239 95.5996 17.239 94.203C17.239 92.8079 17.5045 91.5651 18.0356 90.5224C18.5682 89.4812 19.3375 88.6777 20.3509 88.1122C21.36 87.5466 22.5757 87.2652 23.9882 87.2652C25.402 87.2652 26.5991 87.5466 27.5852 88.1122C28.5714 88.6777 29.3292 89.4812 29.8603 90.5224C30.3914 91.5651 30.6584 92.7905 30.6584 94.203C30.6584 95.617 30.3914 96.8149 29.8603 97.8561C29.3278 98.8988 28.5685 99.7022 27.5852 100.266C26.5991 100.832 25.402 101.115 23.9882 101.115ZM23.9882 97.6212C25.0518 97.6212 25.7925 97.3732 26.213 96.8801C26.6293 96.3856 26.8417 95.4937 26.8417 94.206C26.8417 92.9196 26.6336 92.0002 26.213 91.5071C25.7953 91.0126 25.0518 90.7646 23.9882 90.7646C22.9245 90.7646 22.1782 91.0126 21.7504 91.5071C21.3241 92.0002 21.1073 92.9022 21.1073 94.206C21.1073 95.5111 21.3198 96.3856 21.7504 96.8801C22.1782 97.3732 22.9245 97.6212 23.9882 97.6212ZM38.7942 101.115C37.3473 101.115 36.1258 100.832 35.1325 100.266C34.1407 99.7022 33.3899 98.9046 32.8818 97.8706C32.3766 96.8381 32.1239 95.6272 32.1239 94.2306C32.1239 92.834 32.3909 91.5651 32.922 90.5268C33.4531 89.4841 34.234 88.6806 35.2646 88.1165C36.2937 87.5509 37.5382 87.2681 39.0052 87.2681C40.1736 87.2681 41.2171 87.4929 42.1315 87.9425C43.0472 88.3921 43.7678 89.0215 44.2888 89.835C44.8099 90.6457 45.0726 91.6086 45.0726 92.7195V93.0356H41.1496V92.8239C41.1496 92.0654 40.9444 91.5405 40.5339 91.249C40.1233 90.9546 39.5076 90.8125 38.6894 90.8125C37.7478 90.8125 37.0645 91.0677 36.6368 91.5782C36.2105 92.0886 35.9937 92.9646 35.9937 94.2001C35.9937 95.4357 36.2062 96.3044 36.6368 96.8076C37.0645 97.3123 37.7478 97.5632 38.6894 97.5632C39.5104 97.5632 40.1233 97.4167 40.5339 97.1281C40.9444 96.8352 41.1496 96.3102 41.1496 95.5517V95.34H45.0726V95.6576C45.0726 96.7496 44.8027 97.7111 44.2616 98.5305C43.7204 99.3513 42.9798 99.9879 42.0381 100.437C41.0951 100.887 40.0157 101.112 38.7942 101.112V101.115ZM55.3786 90.8197H45.6481V87.5364H55.3786V90.8197ZM52.815 100.904C51.1055 100.904 49.8337 100.559 48.9955 99.8719C48.1572 99.1845 47.7409 98.0548 47.7409 96.4842V87.9352L48.5792 84.4417H51.6638V96.0347C51.6638 96.6176 51.8016 96.9787 52.0815 97.1209C52.3614 97.2644 52.9198 97.3326 53.7566 97.3326H55.3786V100.642C55.0657 100.713 54.6753 100.774 54.2145 100.825C53.7538 100.88 53.2858 100.904 52.815 100.904ZM63.0981 101.115C61.6843 101.115 60.4728 100.832 59.4609 100.266C58.4475 99.7022 57.6767 98.8988 57.1456 97.8561C56.6145 96.8149 56.3475 95.5996 56.3475 94.203C56.3475 92.8079 56.6145 91.5651 57.1456 90.5224C57.6767 89.4812 58.4475 88.6777 59.4609 88.1122C60.4699 87.5466 61.6843 87.2652 63.0981 87.2652C64.512 87.2652 65.7091 87.5466 66.6952 88.1122C67.6813 88.6777 68.4378 89.4812 68.9689 90.5224C69.5014 91.5651 69.7669 92.7905 69.7669 94.203C69.7669 95.617 69.5014 96.8149 68.9689 97.8561C68.4378 98.8988 67.677 99.7022 66.6952 100.266C65.7091 100.832 64.512 101.115 63.0981 101.115ZM63.0981 97.6212C64.1618 97.6212 64.901 97.3732 65.3215 96.8801C65.7392 96.3856 65.9517 95.4937 65.9517 94.206C65.9517 92.9196 65.7421 92.0002 65.3215 91.5071C64.9053 91.0126 64.1618 90.7646 63.0981 90.7646C62.0345 90.7646 61.2881 91.0126 60.8604 91.5071C60.4326 92.0002 60.2173 92.9022 60.2173 94.206C60.2173 95.5111 60.4297 96.3856 60.8604 96.8801C61.2881 97.3732 62.0345 97.6212 63.0981 97.6212ZM75.4439 100.849H71.5482V87.5335H75.1855V91.3186L75.4482 91.452V100.849H75.4439ZM75.4439 92.5106H74.7104V89.6784H75.3405C75.6707 89.0084 76.1487 88.424 76.74 87.9729C77.3429 87.506 78.1022 87.271 79.028 87.271C79.9524 87.271 80.6902 87.4799 81.2385 87.8946C81.7868 88.3094 82.1844 88.875 82.4299 89.5899C82.6754 90.3049 82.7974 91.1112 82.7974 92.0103V93.23H78.9003V92.515C78.9003 91.7928 78.7783 91.2954 78.5328 91.0343C78.2874 90.7675 77.8539 90.6355 77.2238 90.6355C76.6324 90.6355 76.1874 90.7675 75.8888 91.0343C75.5917 91.2983 75.4439 91.7928 75.4439 92.515V92.5106ZM98.4904 100.849H89.4389V83.1147H98.0728C99.3287 83.1147 100.385 83.267 101.239 83.5774C102.095 83.8877 102.741 84.3677 103.174 85.0203C103.609 85.6744 103.827 86.5126 103.827 87.5364C103.827 88.5617 103.534 89.4565 102.952 90.1178C102.367 90.7777 101.492 91.1808 100.325 91.3229V91.5883C101.737 91.6942 102.791 92.1539 103.491 92.9646C104.187 93.7738 104.538 94.7817 104.538 95.981C104.538 96.9671 104.315 97.8286 103.872 98.5609C103.427 99.2933 102.754 99.8589 101.855 100.258C100.956 100.655 99.8368 100.852 98.4933 100.852L98.4904 100.849ZM93.3632 86.6895V90.1309H97.8115C98.5436 90.1309 99.0761 90.0148 99.4062 89.7872C99.7349 89.5595 99.9043 89.0998 99.9043 88.4124C99.9043 87.6902 99.7321 87.2203 99.3919 87.01C99.0531 86.7983 98.5235 86.6924 97.8115 86.6924H93.3632V86.6895ZM93.3632 93.359V97.2775H98.3598C99.0732 97.2775 99.6244 97.1615 100.008 96.9338C100.391 96.7061 100.583 96.1739 100.583 95.3444C100.583 94.5134 100.395 93.9304 100.022 93.7027C99.6445 93.475 99.0933 93.359 98.3598 93.359H93.3632ZM110.055 101.115C108.887 101.115 107.904 100.804 107.11 100.19C106.316 99.5732 105.919 98.6639 105.919 97.4617C105.919 96.7743 106.081 96.1739 106.404 95.6605C106.727 95.15 107.198 94.7309 107.818 94.4046C108.436 94.0769 109.2 93.8463 110.106 93.7027L114.867 92.9878V95.5546L110.839 96.1913C110.439 96.2623 110.143 96.3682 109.951 96.5089C109.758 96.651 109.661 96.8627 109.661 97.1455C109.661 97.4994 109.8 97.7445 110.078 97.8866C110.358 98.0301 110.785 98.0983 111.36 98.0983C111.903 98.0983 112.421 98.0301 112.918 97.9011C113.416 97.7677 113.82 97.5226 114.136 97.1586C114.449 96.7975 114.607 96.2739 114.607 95.5851L114.974 99.0511H114.529C114.304 99.3687 113.995 99.6877 113.601 100.005C113.207 100.321 112.727 100.587 112.151 100.799C111.575 101.009 110.879 101.115 110.058 101.115H110.055ZM118.322 100.849H114.684V98.5203L114.607 97.7546V92.5933C114.607 91.816 114.406 91.3128 114.006 91.0851C113.605 90.856 113.012 90.74 112.226 90.74C111.438 90.74 110.872 90.8734 110.526 91.1388C110.176 91.4041 110.004 91.8711 110.004 92.5411V92.834H106.263V92.5411C106.263 91.4839 106.519 90.5572 107.032 89.764C107.548 88.9707 108.261 88.3573 109.18 87.9251C110.096 87.4929 111.172 87.2783 112.409 87.2783C113.648 87.2783 114.786 87.5031 115.668 87.9526C116.549 88.4022 117.212 89.0519 117.656 89.8959C118.101 90.7443 118.322 91.7652 118.322 92.9675V100.857V100.849ZM126.691 101.115C125.19 101.115 123.953 100.832 122.977 100.266C122.001 99.7022 121.277 98.9046 120.806 97.8706C120.336 96.8352 120.1 95.6272 120.1 94.2306C120.1 92.834 120.366 91.5651 120.897 90.5268C121.428 89.4841 122.192 88.6806 123.185 88.1165C124.178 87.5509 125.355 87.2681 126.719 87.2681C128.081 87.2681 129.17 87.5161 130.106 88.0107C131.039 88.5037 131.756 89.1882 132.254 90.0627C132.752 90.9386 133 91.9567 133 93.1212C133 93.4924 132.977 93.8521 132.937 94.206C132.901 94.4989 132.861 94.7904 132.819 95.0819H121.833V92.6716H129.47L129.208 92.8819C129.279 92.3714 129.222 91.9422 129.037 91.5985C128.852 91.2548 128.556 90.9894 128.148 90.8052C127.741 90.6225 127.22 90.5268 126.591 90.5268C125.51 90.5268 124.767 90.7748 124.366 91.2693C123.966 91.7623 123.763 92.47 123.763 93.3866V94.5511C123.763 95.2936 123.848 95.8925 124.013 96.3523C124.178 96.812 124.481 97.1455 124.914 97.3558C125.349 97.5675 125.961 97.6719 126.745 97.6719C127.528 97.6719 128.101 97.5806 128.458 97.3935C128.814 97.2093 128.992 96.9135 128.992 96.5089V96.3479H132.865V96.6133C132.865 97.5675 132.614 98.3782 132.109 99.0482C131.603 99.7196 130.887 100.23 129.963 100.584C129.037 100.938 127.946 101.112 126.691 101.112V101.115Z" fill="#FFBE8F"/>
  </g>
  <defs>
    <filter id="filter0_d_529_1697" x="0" y="0.160645" width="133" height="101.954" filterUnits="userSpaceOnUse" color-interpolation-filters="sRGB">
      <feFlood flood-opacity="0" result="BackgroundImageFix"/>
      <feColorMatrix in="SourceAlpha" type="matrix" values="0 0 0 0 0 0 0 0 0 0 0 0 0 0 0 0 0 0 127 0" result="hardAlpha"/>
      <feOffset dy="1"/>
      <feComposite in2="hardAlpha" operator="out"/>
      <feColorMatrix type="matrix" values="0 0 0 0 0 0 0 0 0 0 0 0 0 0 0 0 0 0 0.2 0"/>
      <feBlend mode="normal" in2="BackgroundImageFix" result="effect1_dropShadow_529_1697"/>
      <feBlend mode="normal" in="SourceGraphic" in2="effect1_dropShadow_529_1697" result="shape"/>
    </filter>
  </defs>
</svg>