<svg xmlns="http://www.w3.org/2000/svg" width="182" height="36" viewBox="0 0 182 36" fill="none">
  <path d="M26.7359 8.60521C27.3984 8.50411 27.9905 8.37123 28.5904 8.32983C31.7159 8.11318 34.4707 10.4376 34.8279 13.566C35.1813 16.6645 32.9734 19.5974 29.8701 19.9999C28.7127 20.1501 27.5168 20.0249 26.2795 20.0249V14.6107H20.7314V14.0715C20.7314 11.6113 20.7141 9.15213 20.7372 6.6939C20.7565 4.62565 20.0507 2.8684 18.5688 1.41734C18.5168 1.36824 18.4754 1.30854 18.3945 1.21225C20.3742 0.294629 22.3202 0.263817 24.1448 1.39423C26.8601 3.07734 27.5361 5.57889 26.7378 8.60329L26.7359 8.60521Z" fill="#1730BE"/>
  <path d="M8.18538 27.1156C7.78579 27.1878 7.49885 27.2254 7.21673 27.2899C4.13842 27.9986 1.10537 26.1518 0.226264 23.1245C-0.654766 20.0876 1.29409 16.6116 4.38107 15.9597C5.63665 15.6959 6.96638 15.7816 8.26145 15.7152C8.59749 15.6978 8.5272 15.9636 8.52913 16.1552C8.53298 17.6708 8.54839 19.1892 8.52143 20.7048C8.51372 21.1477 8.67067 21.2498 9.08278 21.244C10.5945 21.2247 12.1033 21.2459 13.6141 21.2286C13.9655 21.2247 14.0705 21.3297 14.0695 21.6811C14.056 24.1259 14.0695 26.5687 14.0599 29.0134C14.0522 31.049 14.7031 32.8178 16.1455 34.2804C16.2148 34.3507 16.2678 34.4364 16.3631 34.5635C14.5067 35.4349 12.7051 35.4108 10.9325 34.4855C9.62584 33.8038 8.72171 32.7417 8.19309 31.3706C7.66158 29.9927 7.7569 28.6042 8.18538 27.1137V27.1156Z" fill="#00E7EC"/>
  <path d="M0.65352 16.8185C-0.237138 14.9399 -0.244842 13.0835 0.799877 11.3474C2.47143 8.57242 5.00668 7.85604 8.14757 8.68989C8.0715 8.27778 8.02144 7.93788 7.94344 7.60569C7.29928 4.88171 9.05845 1.79666 11.7526 0.932957C14.9772 -0.100209 18.1672 1.42306 19.2986 4.589C19.5162 5.19946 19.549 5.8831 19.5961 6.53786C19.6462 7.21284 19.5846 7.89263 19.6193 8.56856C19.6404 8.98068 19.4777 9.05482 19.1051 9.05097C17.5809 9.03363 16.0566 9.05289 14.5324 9.03556C14.1617 9.03267 14.0452 9.15592 14.049 9.517C14.0644 11.0172 14.0433 12.5192 14.0644 14.0204C14.0692 14.4132 13.9797 14.55 13.5541 14.5461C11.1411 14.5259 8.72818 14.55 6.31522 14.5326C4.23541 14.5182 2.43002 15.1604 0.933717 16.6192C0.865353 16.6875 0.77388 16.7328 0.657372 16.8146L0.65352 16.8185Z" fill="#FFBE8F"/>
  <path d="M34.1924 18.959C34.9232 20.4919 35.0301 22.0036 34.4726 23.5442C33.9093 25.0964 32.8549 26.2133 31.3471 26.9162C29.8498 27.6133 28.3159 27.5295 26.6973 27.0828C26.7676 27.4747 26.8081 27.7741 26.8764 28.0668C27.588 31.0835 25.7364 34.1512 22.6533 34.9947C19.5297 35.8488 16.1905 33.9548 15.4837 30.8139C15.2064 29.5862 15.3114 28.2719 15.2488 26.9971C15.2334 26.6976 15.4664 26.7409 15.6551 26.7409H20.0988C20.5658 26.7409 20.7997 26.5099 20.7997 26.0458C20.7997 24.6024 20.8113 23.159 20.792 21.7147C20.7882 21.3546 20.8845 21.2362 21.26 21.24C23.6903 21.2554 26.1187 21.24 28.549 21.2516C30.6249 21.2631 32.438 20.6267 33.9266 19.1564C33.9873 19.0976 34.0633 19.0533 34.1895 18.9609L34.1924 18.959Z" fill="#5A6CFF"/>
  <path d="M56.4016 26.1396H52.6035V9.12061H56.4016V26.1396ZM59.0852 26.1396H53.6433V22.7096H59.0367C60.1838 22.7096 61.1051 22.5696 61.796 22.2907C62.4859 22.0107 62.9951 21.5038 63.3168 20.7654C63.6363 20.0304 63.7989 18.9849 63.7989 17.629C63.7989 16.273 63.6397 15.2275 63.3168 14.4925C62.9951 13.7575 62.4893 13.2472 61.796 12.9661C61.1017 12.6849 60.1838 12.5483 59.0367 12.5483H53.6433V9.12061H59.0852C60.9098 9.12061 62.4735 9.46044 63.7831 10.1367C65.0917 10.813 66.0988 11.7874 66.8089 13.0575C67.5191 14.3288 67.8736 15.8519 67.8736 17.629C67.8736 19.406 67.5191 20.9325 66.8089 22.1993C66.0988 23.4705 65.0917 24.4449 63.7831 25.12C62.4735 25.7975 60.9098 26.1373 59.0852 26.1373V26.1396ZM75.8253 26.3947C74.4569 26.3947 73.2839 26.1238 72.3039 25.5818C71.3239 25.0388 70.5776 24.2676 70.0628 23.2684C69.5479 22.2681 69.2905 21.1018 69.2905 19.7617C69.2905 18.4227 69.5479 17.2304 70.0628 16.2301C70.5776 15.2309 71.3239 14.4598 72.3039 13.9167C73.2805 13.3748 74.4569 13.1038 75.8253 13.1038C77.1926 13.1038 78.3521 13.3748 79.3072 13.9167C80.2612 14.4598 80.994 15.2309 81.5088 16.2301C82.0236 17.2304 82.2799 18.4069 82.2799 19.7617C82.2799 21.1188 82.0236 22.2681 81.5088 23.2684C80.994 24.2676 80.2579 25.0388 79.3072 25.5818C78.3521 26.1238 77.1926 26.3947 75.8253 26.3947ZM75.8253 23.0426C76.8538 23.0426 77.5708 22.8044 77.9783 22.3302C78.3814 21.8572 78.5869 21.0002 78.5869 19.7662C78.5869 18.531 78.3848 17.6481 77.9783 17.1751C77.5742 16.7009 76.8538 16.4627 75.8253 16.4627C74.7956 16.4627 74.0719 16.7009 73.6587 17.1751C73.2455 17.6481 73.0366 18.5141 73.0366 19.7662C73.0366 21.0172 73.2421 21.8572 73.6587 22.3302C74.0719 22.8044 74.7956 23.0426 75.8253 23.0426ZM90.156 26.3947C88.756 26.3947 87.5739 26.1238 86.6131 25.5818C85.6523 25.0388 84.9252 24.2744 84.433 23.2809C83.9452 22.2907 83.7014 21.1278 83.7014 19.7888C83.7014 18.4486 83.9577 17.2304 84.4725 16.2335C84.9873 15.2343 85.7427 14.4632 86.7396 13.9201C87.7365 13.3782 88.9412 13.1072 90.3615 13.1072C91.4916 13.1072 92.5021 13.3228 93.3884 13.7541C94.2736 14.1854 94.9713 14.7894 95.476 15.5707C95.9807 16.3475 96.2347 17.2722 96.2347 18.338V18.6417H92.4366V18.4396C92.4366 17.7102 92.2379 17.2078 91.8405 16.9267C91.4431 16.6456 90.847 16.5078 90.0555 16.5078C89.1433 16.5078 88.4828 16.7528 88.0684 17.2428C87.6552 17.7328 87.4464 18.5728 87.4464 19.7594C87.4464 20.9449 87.6518 21.7781 88.0684 22.2614C88.4828 22.7457 89.1433 22.9873 90.0555 22.9873C90.8504 22.9873 91.4431 22.8462 91.8405 22.5696C92.2379 22.2884 92.4366 21.7849 92.4366 21.0556V20.8535H96.2347V21.1572C96.2347 22.206 95.9739 23.1273 95.45 23.9154C94.925 24.7023 94.2092 25.3131 93.297 25.7444C92.3847 26.1757 91.3392 26.3913 90.156 26.3913V26.3947ZM106.212 16.5146H96.7913V13.3646H106.212V16.5146ZM103.729 26.1926C102.075 26.1926 100.843 25.8618 100.033 25.2025C99.2221 24.542 98.8179 23.4581 98.8179 21.9509V13.7474L99.6285 10.3953H102.616V21.5196C102.616 22.0784 102.749 22.4251 103.019 22.5628C103.29 22.6994 103.831 22.7649 104.641 22.7649H106.212V25.9408C105.909 26.0097 105.531 26.0684 105.085 26.117C104.638 26.17 104.185 26.1926 103.729 26.1926ZM113.684 26.3947C112.315 26.3947 111.143 26.1238 110.162 25.5818C109.182 25.0388 108.436 24.2676 107.921 23.2684C107.408 22.2681 107.15 21.1018 107.15 19.7617C107.15 18.4227 107.408 17.2304 107.921 16.2301C108.436 15.2309 109.182 14.4598 110.162 13.9167C111.14 13.3748 112.315 13.1038 113.684 13.1038C115.052 13.1038 116.212 13.3748 117.166 13.9167C118.12 14.4598 118.854 15.2309 119.367 16.2301C119.882 17.2304 120.14 18.4069 120.14 19.7617C120.14 21.1188 119.882 22.2681 119.367 23.2684C118.854 24.2676 118.117 25.0388 117.166 25.5818C116.212 26.1238 115.052 26.3947 113.684 26.3947ZM113.684 23.0426C114.713 23.0426 115.429 22.8044 115.837 22.3302C116.241 21.8572 116.445 21.0002 116.445 19.7662C116.445 18.531 116.243 17.6481 115.837 17.1751C115.433 16.7009 114.713 16.4627 113.684 16.4627C112.654 16.4627 111.932 16.7009 111.517 17.1751C111.104 17.6481 110.895 18.5141 110.895 19.7662C110.895 21.0172 111.101 21.8572 111.517 22.3302C111.932 22.8044 112.654 23.0426 113.684 23.0426ZM125.634 26.1396H121.862V13.3612H125.384V16.9944L125.638 17.122V26.1396H125.634ZM125.634 18.1381H124.924V15.4206H125.534C125.852 14.777 126.305 14.2306 126.889 13.7835C127.471 13.3353 128.208 13.1106 129.104 13.1106C129.999 13.1106 130.713 13.3093 131.243 13.7078C131.774 14.1064 132.159 14.6495 132.396 15.3348C132.634 16.0212 132.752 16.7957 132.752 17.6583V18.828H128.98V18.1415C128.98 17.4494 128.862 16.9719 128.625 16.7201C128.387 16.4661 127.967 16.3385 127.357 16.3385C126.784 16.3385 126.355 16.4661 126.065 16.7201C125.778 16.9752 125.634 17.4494 125.634 18.1415V18.1381ZM147.944 26.1396H139.182V9.12061H147.54C148.755 9.12061 149.778 9.26738 150.605 9.56544C151.432 9.86238 152.057 10.323 152.477 10.9508C152.898 11.5774 153.109 12.3812 153.109 13.3646C153.109 14.348 152.826 15.2083 152.263 15.8417C151.696 16.4751 150.849 16.8612 149.719 16.9978V17.253C151.087 17.3546 152.107 17.7949 152.784 18.5728C153.458 19.3507 153.797 20.3183 153.797 21.4676C153.797 22.4149 153.582 23.2425 153.152 23.9447C152.722 24.647 152.071 25.1889 151.201 25.5717C150.331 25.9544 149.247 26.1429 147.946 26.1429L147.944 26.1396ZM142.98 12.5517V15.8553H147.286C147.996 15.8553 148.511 15.7435 148.829 15.5244C149.149 15.3054 149.311 14.8651 149.311 14.2046C149.311 13.5125 149.145 13.0609 148.817 12.8588C148.487 12.6556 147.976 12.5551 147.286 12.5551H142.98V12.5517ZM142.98 18.9522V22.713H147.816C148.507 22.713 149.041 22.6012 149.413 22.3822C149.784 22.1643 149.969 21.6539 149.969 20.8568C149.969 20.0597 149.787 19.5009 149.425 19.2818C149.061 19.0628 148.527 18.9522 147.816 18.9522H142.98ZM159.138 26.3947C158.008 26.3947 157.058 26.0978 156.289 25.5062C155.52 24.9146 155.136 24.0418 155.136 22.8891C155.136 22.2286 155.292 21.6539 155.604 21.1605C155.917 20.6705 156.373 20.2686 156.973 19.9547C157.572 19.6409 158.311 19.4196 159.188 19.2818L163.797 18.5954V21.0601L159.898 21.6697C159.51 21.7386 159.223 21.8402 159.038 21.9746C158.853 22.1112 158.758 22.3144 158.758 22.5854C158.758 22.9252 158.891 23.1601 159.162 23.2978C159.432 23.4344 159.845 23.4999 160.403 23.4999C160.927 23.4999 161.428 23.4344 161.911 23.3102C162.392 23.1838 162.784 22.9478 163.09 22.5978C163.392 22.2523 163.546 21.7488 163.546 21.0883L163.901 24.4155H163.47C163.252 24.7192 162.953 25.0263 162.572 25.33C162.19 25.6338 161.725 25.8889 161.168 26.091C160.612 26.2931 159.937 26.3947 159.142 26.3947H159.138ZM167.142 26.1396H163.621V23.9052L163.546 23.1702V18.2172C163.546 17.472 163.351 16.9888 162.962 16.7698C162.575 16.5507 162.002 16.4401 161.239 16.4401C160.477 16.4401 159.93 16.5665 159.594 16.8217C159.256 17.0769 159.09 17.524 159.09 18.1675V18.4486H155.468V18.1675C155.468 17.1514 155.715 16.2628 156.214 15.5019C156.712 14.7409 157.403 14.1527 158.292 13.7372C159.178 13.3228 160.22 13.1162 161.419 13.1162C162.617 13.1162 163.719 13.3319 164.571 13.7632C165.425 14.1945 166.067 14.8188 166.497 15.6294C166.926 16.4423 167.142 17.4235 167.142 18.5762V26.1463V26.1396ZM175.243 26.3947C173.79 26.3947 172.591 26.1238 171.647 25.5818C170.702 25.0388 170.002 24.2744 169.546 23.2809C169.09 22.2884 168.861 21.1278 168.861 19.7888C168.861 18.4486 169.119 17.2304 169.634 16.2335C170.149 15.2343 170.888 14.4632 171.849 13.9201C172.81 13.3782 173.949 13.1072 175.269 13.1072C176.587 13.1072 177.643 13.3454 178.548 13.8196C179.451 14.2927 180.145 14.9498 180.627 15.7898C181.109 16.6286 181.35 17.6064 181.35 18.723C181.35 19.0798 181.327 19.4264 181.288 19.7662C181.246 20.1049 181.206 20.3826 181.173 20.6051H170.539V18.2917H177.933L177.679 18.4949C177.748 18.0049 177.692 17.5928 177.513 17.2631C177.334 16.9323 177.047 16.6783 176.653 16.5022C176.259 16.3249 175.754 16.2335 175.144 16.2335C174.099 16.2335 173.38 16.4717 172.991 16.9459C172.604 17.4201 172.409 18.0998 172.409 18.9781V20.0959C172.409 20.8083 172.49 21.383 172.649 21.8244C172.81 22.2647 173.102 22.5854 173.523 22.7875C173.943 22.9907 174.536 23.0912 175.295 23.0912C176.053 23.0912 176.608 23.0031 176.953 22.8236C177.298 22.6475 177.47 22.363 177.47 21.9746V21.821H181.22V22.0751C181.22 22.9907 180.976 23.7686 180.487 24.4121C179.998 25.0557 179.304 25.5457 178.409 25.8855C177.513 26.2254 176.458 26.3913 175.243 26.3913V26.3947Z" fill="white"/>
</svg>