<svg width="42" height="41" viewBox="0 0 42 41" fill="none" xmlns="http://www.w3.org/2000/svg">
<g id="Icon 2" clip-path="url(#clip0_229_281)">
<path id="Vector" d="M39.3758 22.0737C38.9368 22.0737 38.4978 21.8981 38.1465 21.5907L20.9369 4.77624L3.72729 21.5907C3.02486 22.2493 1.92731 22.2493 1.22487 21.5468C0.56634 20.8444 0.56634 19.7469 1.26877 19.0444L19.7077 1.04456C20.4101 0.386026 21.4637 0.386026 22.1662 1.04456L40.6051 19.0444C41.3075 19.7029 41.3075 20.8444 40.649 21.5468C40.2977 21.8981 39.8148 22.0737 39.3758 22.0737ZM35.5124 39.1955V22.0298C35.5124 21.0639 34.7222 20.2737 33.7563 20.2737C32.7905 20.2737 32.0002 21.0639 32.0002 22.0298V37.4394H26.5125V28.0443C26.5125 26.7712 25.4588 25.7175 24.1857 25.7175H17.6882C16.415 25.7175 15.3613 26.7712 15.3613 28.0443V37.4394H9.87359V22.0298C9.87359 21.0639 9.08335 20.2737 8.1175 20.2737C7.15166 20.2737 6.36142 21.0639 6.36142 22.0298V39.1955C6.36142 40.1613 7.15166 40.9516 8.1175 40.9516H17.1174C18.0833 40.9516 18.8735 40.1613 18.8735 39.1955V29.2297H23.0442V39.1955C23.0442 40.1613 23.8345 40.9516 24.8003 40.9516H33.8002C34.7661 40.9516 35.5124 40.1613 35.5124 39.1955Z" fill="#E25E3E"/>
</g>
<defs>
<clipPath id="clip0_229_281">
<rect width="40.3899" height="40.3899" fill="white" transform="translate(0.742188 0.561523)"/>
</clipPath>
</defs>
</svg>
