<svg width="42" height="42" viewBox="0 0 42 42" fill="none" xmlns="http://www.w3.org/2000/svg">
<g id="Icon">
<path id="Vector" d="M36.9252 25.1586V7.48799C36.9252 6.14166 35.7471 4.96362 34.4008 4.96362H4.10836C2.76202 4.96362 1.58398 6.14166 1.58398 7.48799V34.4146C1.58398 35.7609 2.76202 36.939 4.10836 36.939H25.1448" stroke="#E25E3E" stroke-width="2.8273" stroke-linecap="round" stroke-linejoin="round"/>
<path id="Vector_2" d="M10.8395 10.0123C11.3042 10.0123 11.681 9.63553 11.681 9.1708C11.681 8.70608 11.3042 8.32935 10.8395 8.32935C10.3748 8.32935 9.99805 8.70608 9.99805 9.1708C9.99805 9.63553 10.3748 10.0123 10.8395 10.0123Z" stroke="#E25E3E" stroke-width="2.8273" stroke-linecap="round" stroke-linejoin="round"/>
<path id="Vector_3" d="M27.6696 10.0123C28.1343 10.0123 28.511 9.63553 28.511 9.1708C28.511 8.70608 28.1343 8.32935 27.6696 8.32935C27.2049 8.32935 26.8281 8.70608 26.8281 9.1708C26.8281 9.63553 27.2049 10.0123 27.6696 10.0123Z" stroke="#E25E3E" stroke-width="2.8273" stroke-linecap="round" stroke-linejoin="round"/>
<path id="Vector_4" d="M11.6815 9.17101V1.5979M28.5106 9.17101V1.5979M1.58398 13.3783H36.9252" stroke="#E25E3E" stroke-width="2.8273" stroke-linecap="round" stroke-linejoin="round"/>
<path id="Vector_5" d="M31.8755 40.3047C36.5227 40.3047 40.2901 36.5374 40.2901 31.8902C40.2901 27.2429 36.5227 23.4756 31.8755 23.4756C27.2283 23.4756 23.4609 27.2429 23.4609 31.8902C23.4609 36.5374 27.2283 40.3047 31.8755 40.3047Z" stroke="#E25E3E" stroke-width="2.8273" stroke-linecap="round" stroke-linejoin="round"/>
<path id="Vector_6" d="M28.5098 31.8902H35.2414M31.8756 28.5244V35.2561" stroke="#E25E3E" stroke-width="2.8273" stroke-linecap="round" stroke-linejoin="round"/>
</g>
</svg>
