<svg width="42" height="42" viewBox="0 0 42 42" fill="none" xmlns="http://www.w3.org/2000/svg">
<g id="Icons3" clip-path="url(#clip0_229_285)">
<g id="Vector">
<mask id="path-1-outside-1_229_285" maskUnits="userSpaceOnUse" x="0.162109" y="0.177002" width="42" height="42" fill="black">
<rect fill="white" x="0.162109" y="0.177002" width="42" height="42"/>
<path d="M6.58109 9.28023C4.95708 9.28023 3.63599 10.6013 3.63599 12.2253V30.0642C3.63599 31.6882 4.95708 33.0093 6.58109 33.0093H35.2916C36.9156 33.0093 38.2367 31.6882 38.2367 30.0642V12.2253C38.2367 10.6013 36.9156 9.28023 35.2916 9.28023H26.3722V9.16243H26.4311C26.6583 9.16243 26.8686 9.06987 27.0285 8.91841C27.1884 8.76694 27.2725 8.54816 27.2725 8.32939V7.50476C27.2725 4.01271 24.4284 1.177 20.9363 1.177C17.4443 1.177 14.6002 4.02113 14.6002 7.50476V8.32939C14.6002 8.79219 14.9788 9.17084 15.4416 9.17084H15.5005V9.28865H6.58109V9.28023ZM5.31891 30.0642V12.2253C5.31891 11.5353 5.88268 10.9631 6.58109 10.9631H15.5005V12.36C15.5005 13.9251 16.1653 15.3724 17.3181 16.4074V16.7776C17.3181 17.0805 17.1077 17.3498 16.8216 17.4255L10.8304 19.0075C8.8362 19.5292 7.43938 21.2878 7.43938 23.2737V31.318H6.58109C5.8911 31.318 5.31891 30.7542 5.31891 30.0642ZM22.7202 7.38695C23.1241 7.91707 23.7721 8.48926 24.6892 8.84267V12.36C24.6892 13.5464 24.1423 14.6319 23.1999 15.3556C23.04 15.4818 22.8633 15.5912 22.6866 15.6837C22.148 15.9614 21.5422 16.1044 20.9363 16.1044C20.5324 16.1044 20.1285 16.0455 19.7499 15.9193C19.3628 15.7931 19.001 15.608 18.6812 15.364C18.2181 15.014 17.8425 14.5613 17.584 14.0414C17.3256 13.5216 17.1913 12.9489 17.1919 12.3684V9.09511C20.1959 8.86792 21.8451 8.07695 22.7202 7.38695ZM18.9168 17.4087C18.9589 17.4255 19.001 17.434 19.0431 17.4424C19.2703 17.5265 19.4975 17.5854 19.7331 17.6443C19.8088 17.6611 19.8761 17.6864 19.9518 17.6948C20.2716 17.7537 20.5998 17.7874 20.9363 17.7874C21.2729 17.7874 21.6011 17.7537 21.9209 17.6948L22.1396 17.6443C22.3752 17.5938 22.6024 17.5265 22.8296 17.4424C22.8717 17.4255 22.9138 17.4255 22.9558 17.4087C23.1325 18.0398 23.5785 18.5615 24.1675 18.8644L20.9363 23.1811L17.7136 18.8728C18.3026 18.5615 18.7401 18.0398 18.9168 17.4087ZM28.8629 31.318V24.5779C28.8629 24.1151 28.4842 23.7365 28.0214 23.7365C27.5586 23.7365 27.18 24.1151 27.18 24.5779V31.318H14.6927V24.5779C14.6927 24.1151 14.3141 23.7365 13.8513 23.7365C13.3885 23.7365 13.0098 24.1151 13.0098 24.5779V31.318H9.13071V23.2737C9.13071 22.0451 10.0058 20.9681 11.268 20.6315L16.0054 19.3861L20.2716 25.0828C20.4315 25.2932 20.6839 25.4194 20.9448 25.4194C21.2056 25.4194 21.458 25.2932 21.6179 25.0828L25.8841 19.3861L30.6215 20.6315C31.8753 20.9597 32.7504 22.0451 32.7504 23.2652V31.3096H28.8629V31.318ZM35.2916 10.9631C35.9816 10.9631 36.5538 11.5269 36.5538 12.2253V30.0642C36.5538 30.7626 35.99 31.3264 35.2916 31.3264H34.4249V23.2821C34.4249 21.2962 33.0281 19.5376 31.0338 19.0159L25.0427 17.434C24.8995 17.3955 24.7728 17.3115 24.6817 17.1946C24.5905 17.0777 24.54 16.9342 24.5378 16.786V16.4074C25.1111 15.9008 25.5698 15.2777 25.8833 14.5798C26.1967 13.8818 26.3576 13.1251 26.3553 12.36V10.9631H35.2916ZM20.9363 2.85992C23.4607 2.85992 25.5223 4.87941 25.5896 7.38695C24.1507 7.01671 23.6795 5.7377 23.6543 5.68721C23.5449 5.36746 23.2504 5.16551 22.9138 5.14026C22.5772 5.11502 22.249 5.31697 22.0976 5.61148C22.0891 5.62831 21.1888 7.27757 16.3504 7.4711H16.2831C16.2999 4.92149 18.3867 2.85992 20.9363 2.85992ZM39.8691 34.9447H2.00357C1.54076 34.9447 1.16211 35.3233 1.16211 35.7861C1.16211 38.5124 3.38356 40.7255 6.10146 40.7255H35.7628C38.4891 40.7255 40.7022 38.5124 40.7022 35.7861C40.7106 35.3149 40.3319 34.9447 39.8691 34.9447ZM35.7712 39.0426H6.10146C4.59525 39.0426 3.32465 38.016 2.95441 36.6276H38.9183C38.7322 37.3201 38.323 37.932 37.7541 38.3685C37.1852 38.8051 36.4883 39.042 35.7712 39.0426Z"/>
</mask>
<path d="M6.58109 9.28023C4.95708 9.28023 3.63599 10.6013 3.63599 12.2253V30.0642C3.63599 31.6882 4.95708 33.0093 6.58109 33.0093H35.2916C36.9156 33.0093 38.2367 31.6882 38.2367 30.0642V12.2253C38.2367 10.6013 36.9156 9.28023 35.2916 9.28023H26.3722V9.16243H26.4311C26.6583 9.16243 26.8686 9.06987 27.0285 8.91841C27.1884 8.76694 27.2725 8.54816 27.2725 8.32939V7.50476C27.2725 4.01271 24.4284 1.177 20.9363 1.177C17.4443 1.177 14.6002 4.02113 14.6002 7.50476V8.32939C14.6002 8.79219 14.9788 9.17084 15.4416 9.17084H15.5005V9.28865H6.58109V9.28023ZM5.31891 30.0642V12.2253C5.31891 11.5353 5.88268 10.9631 6.58109 10.9631H15.5005V12.36C15.5005 13.9251 16.1653 15.3724 17.3181 16.4074V16.7776C17.3181 17.0805 17.1077 17.3498 16.8216 17.4255L10.8304 19.0075C8.8362 19.5292 7.43938 21.2878 7.43938 23.2737V31.318H6.58109C5.8911 31.318 5.31891 30.7542 5.31891 30.0642ZM22.7202 7.38695C23.1241 7.91707 23.7721 8.48926 24.6892 8.84267V12.36C24.6892 13.5464 24.1423 14.6319 23.1999 15.3556C23.04 15.4818 22.8633 15.5912 22.6866 15.6837C22.148 15.9614 21.5422 16.1044 20.9363 16.1044C20.5324 16.1044 20.1285 16.0455 19.7499 15.9193C19.3628 15.7931 19.001 15.608 18.6812 15.364C18.2181 15.014 17.8425 14.5613 17.584 14.0414C17.3256 13.5216 17.1913 12.9489 17.1919 12.3684V9.09511C20.1959 8.86792 21.8451 8.07695 22.7202 7.38695ZM18.9168 17.4087C18.9589 17.4255 19.001 17.434 19.0431 17.4424C19.2703 17.5265 19.4975 17.5854 19.7331 17.6443C19.8088 17.6611 19.8761 17.6864 19.9518 17.6948C20.2716 17.7537 20.5998 17.7874 20.9363 17.7874C21.2729 17.7874 21.6011 17.7537 21.9209 17.6948L22.1396 17.6443C22.3752 17.5938 22.6024 17.5265 22.8296 17.4424C22.8717 17.4255 22.9138 17.4255 22.9558 17.4087C23.1325 18.0398 23.5785 18.5615 24.1675 18.8644L20.9363 23.1811L17.7136 18.8728C18.3026 18.5615 18.7401 18.0398 18.9168 17.4087ZM28.8629 31.318V24.5779C28.8629 24.1151 28.4842 23.7365 28.0214 23.7365C27.5586 23.7365 27.18 24.1151 27.18 24.5779V31.318H14.6927V24.5779C14.6927 24.1151 14.3141 23.7365 13.8513 23.7365C13.3885 23.7365 13.0098 24.1151 13.0098 24.5779V31.318H9.13071V23.2737C9.13071 22.0451 10.0058 20.9681 11.268 20.6315L16.0054 19.3861L20.2716 25.0828C20.4315 25.2932 20.6839 25.4194 20.9448 25.4194C21.2056 25.4194 21.458 25.2932 21.6179 25.0828L25.8841 19.3861L30.6215 20.6315C31.8753 20.9597 32.7504 22.0451 32.7504 23.2652V31.3096H28.8629V31.318ZM35.2916 10.9631C35.9816 10.9631 36.5538 11.5269 36.5538 12.2253V30.0642C36.5538 30.7626 35.99 31.3264 35.2916 31.3264H34.4249V23.2821C34.4249 21.2962 33.0281 19.5376 31.0338 19.0159L25.0427 17.434C24.8995 17.3955 24.7728 17.3115 24.6817 17.1946C24.5905 17.0777 24.54 16.9342 24.5378 16.786V16.4074C25.1111 15.9008 25.5698 15.2777 25.8833 14.5798C26.1967 13.8818 26.3576 13.1251 26.3553 12.36V10.9631H35.2916ZM20.9363 2.85992C23.4607 2.85992 25.5223 4.87941 25.5896 7.38695C24.1507 7.01671 23.6795 5.7377 23.6543 5.68721C23.5449 5.36746 23.2504 5.16551 22.9138 5.14026C22.5772 5.11502 22.249 5.31697 22.0976 5.61148C22.0891 5.62831 21.1888 7.27757 16.3504 7.4711H16.2831C16.2999 4.92149 18.3867 2.85992 20.9363 2.85992ZM39.8691 34.9447H2.00357C1.54076 34.9447 1.16211 35.3233 1.16211 35.7861C1.16211 38.5124 3.38356 40.7255 6.10146 40.7255H35.7628C38.4891 40.7255 40.7022 38.5124 40.7022 35.7861C40.7106 35.3149 40.3319 34.9447 39.8691 34.9447ZM35.7712 39.0426H6.10146C4.59525 39.0426 3.32465 38.016 2.95441 36.6276H38.9183C38.7322 37.3201 38.323 37.932 37.7541 38.3685C37.1852 38.8051 36.4883 39.042 35.7712 39.0426Z" fill="#E25E3E"/>
<path d="M6.58109 9.28023C4.95708 9.28023 3.63599 10.6013 3.63599 12.2253V30.0642C3.63599 31.6882 4.95708 33.0093 6.58109 33.0093H35.2916C36.9156 33.0093 38.2367 31.6882 38.2367 30.0642V12.2253C38.2367 10.6013 36.9156 9.28023 35.2916 9.28023H26.3722V9.16243H26.4311C26.6583 9.16243 26.8686 9.06987 27.0285 8.91841C27.1884 8.76694 27.2725 8.54816 27.2725 8.32939V7.50476C27.2725 4.01271 24.4284 1.177 20.9363 1.177C17.4443 1.177 14.6002 4.02113 14.6002 7.50476V8.32939C14.6002 8.79219 14.9788 9.17084 15.4416 9.17084H15.5005V9.28865H6.58109V9.28023ZM5.31891 30.0642V12.2253C5.31891 11.5353 5.88268 10.9631 6.58109 10.9631H15.5005V12.36C15.5005 13.9251 16.1653 15.3724 17.3181 16.4074V16.7776C17.3181 17.0805 17.1077 17.3498 16.8216 17.4255L10.8304 19.0075C8.8362 19.5292 7.43938 21.2878 7.43938 23.2737V31.318H6.58109C5.8911 31.318 5.31891 30.7542 5.31891 30.0642ZM22.7202 7.38695C23.1241 7.91707 23.7721 8.48926 24.6892 8.84267V12.36C24.6892 13.5464 24.1423 14.6319 23.1999 15.3556C23.04 15.4818 22.8633 15.5912 22.6866 15.6837C22.148 15.9614 21.5422 16.1044 20.9363 16.1044C20.5324 16.1044 20.1285 16.0455 19.7499 15.9193C19.3628 15.7931 19.001 15.608 18.6812 15.364C18.2181 15.014 17.8425 14.5613 17.584 14.0414C17.3256 13.5216 17.1913 12.9489 17.1919 12.3684V9.09511C20.1959 8.86792 21.8451 8.07695 22.7202 7.38695ZM18.9168 17.4087C18.9589 17.4255 19.001 17.434 19.0431 17.4424C19.2703 17.5265 19.4975 17.5854 19.7331 17.6443C19.8088 17.6611 19.8761 17.6864 19.9518 17.6948C20.2716 17.7537 20.5998 17.7874 20.9363 17.7874C21.2729 17.7874 21.6011 17.7537 21.9209 17.6948L22.1396 17.6443C22.3752 17.5938 22.6024 17.5265 22.8296 17.4424C22.8717 17.4255 22.9138 17.4255 22.9558 17.4087C23.1325 18.0398 23.5785 18.5615 24.1675 18.8644L20.9363 23.1811L17.7136 18.8728C18.3026 18.5615 18.7401 18.0398 18.9168 17.4087ZM28.8629 31.318V24.5779C28.8629 24.1151 28.4842 23.7365 28.0214 23.7365C27.5586 23.7365 27.18 24.1151 27.18 24.5779V31.318H14.6927V24.5779C14.6927 24.1151 14.3141 23.7365 13.8513 23.7365C13.3885 23.7365 13.0098 24.1151 13.0098 24.5779V31.318H9.13071V23.2737C9.13071 22.0451 10.0058 20.9681 11.268 20.6315L16.0054 19.3861L20.2716 25.0828C20.4315 25.2932 20.6839 25.4194 20.9448 25.4194C21.2056 25.4194 21.458 25.2932 21.6179 25.0828L25.8841 19.3861L30.6215 20.6315C31.8753 20.9597 32.7504 22.0451 32.7504 23.2652V31.3096H28.8629V31.318ZM35.2916 10.9631C35.9816 10.9631 36.5538 11.5269 36.5538 12.2253V30.0642C36.5538 30.7626 35.99 31.3264 35.2916 31.3264H34.4249V23.2821C34.4249 21.2962 33.0281 19.5376 31.0338 19.0159L25.0427 17.434C24.8995 17.3955 24.7728 17.3115 24.6817 17.1946C24.5905 17.0777 24.54 16.9342 24.5378 16.786V16.4074C25.1111 15.9008 25.5698 15.2777 25.8833 14.5798C26.1967 13.8818 26.3576 13.1251 26.3553 12.36V10.9631H35.2916ZM20.9363 2.85992C23.4607 2.85992 25.5223 4.87941 25.5896 7.38695C24.1507 7.01671 23.6795 5.7377 23.6543 5.68721C23.5449 5.36746 23.2504 5.16551 22.9138 5.14026C22.5772 5.11502 22.249 5.31697 22.0976 5.61148C22.0891 5.62831 21.1888 7.27757 16.3504 7.4711H16.2831C16.2999 4.92149 18.3867 2.85992 20.9363 2.85992ZM39.8691 34.9447H2.00357C1.54076 34.9447 1.16211 35.3233 1.16211 35.7861C1.16211 38.5124 3.38356 40.7255 6.10146 40.7255H35.7628C38.4891 40.7255 40.7022 38.5124 40.7022 35.7861C40.7106 35.3149 40.3319 34.9447 39.8691 34.9447ZM35.7712 39.0426H6.10146C4.59525 39.0426 3.32465 38.016 2.95441 36.6276H38.9183C38.7322 37.3201 38.323 37.932 37.7541 38.3685C37.1852 38.8051 36.4883 39.042 35.7712 39.0426Z" stroke="#E25E3E" stroke-width="0.969358" mask="url(#path-1-outside-1_229_285)"/>
</g>
</g>
<defs>
<clipPath id="clip0_229_285">
<rect width="40.3899" height="40.3899" fill="white" transform="translate(0.742188 0.756348)"/>
</clipPath>
</defs>
</svg>
