<svg xmlns="http://www.w3.org/2000/svg" width="20" height="21" viewBox="0 0 20 21" fill="none">
  <g clip-path="url(#clip0_529_1724)">
    <path d="M6 10.5C6 8.5666 7.5666 7 9.5 7C11.4334 7 13 8.5666 13 10.5C13 12.4334 11.4334 14 9.5 14C7.5666 14 6 12.4334 6 10.5Z" fill="white"/>
    <path d="M13.68 1H5.319C2.381 1 0 3.382 0 6.32V14.68C0 17.618 2.381 20 5.319 20H13.68C16.618 20 19 17.618 19 14.68V6.32C19 3.382 16.618 1 13.68 1ZM9.5 15.06C6.981 15.06 4.94 13.018 4.94 10.5C4.94 7.982 6.981 5.94 9.5 5.94C12.018 5.94 14.06 7.982 14.06 10.5C14.06 13.018 12.018 15.06 9.5 15.06ZM14.439 6.7C13.81 6.7 13.299 6.19 13.299 5.56C13.299 4.93 13.81 4.42 14.439 4.42C15.069 4.42 15.579 4.93 15.579 5.56C15.579 6.19 15.069 6.7 14.439 6.7Z" fill="white"/>
  </g>
  <defs>
    <clipPath id="clip0_529_1724">
      <rect width="20" height="20" fill="white" transform="translate(0 0.614746)"/>
    </clipPath>
  </defs>
</svg>