<svg xmlns="http://www.w3.org/2000/svg" width="20" height="21" viewBox="0 0 20 21" fill="none">
  <g clip-path="url(#clip0_529_1732)">
    <path d="M16.4904 20.4355H3.64241C1.94641 20.4355 0.566406 19.0555 0.566406 17.3585V4.51255C0.566406 2.81555 1.94641 1.43555 3.64241 1.43555H16.4904C18.1864 1.43555 19.5664 2.81555 19.5664 4.51255V17.3585C19.5664 19.0555 18.1864 20.4355 16.4904 20.4355ZM6.98641 17.1425H6.99041V8.94755H4.44641V17.1425H6.98641ZM5.71641 7.82755C6.10741 7.82855 6.48241 7.67355 6.75841 7.39655C7.03441 7.11955 7.18941 6.74355 7.18941 6.35255C7.18741 5.53755 6.52941 4.87855 5.71641 4.87655C4.90341 4.87655 4.24441 5.53755 4.24441 6.35255C4.24441 7.16755 4.90341 7.82755 5.71641 7.82755ZM16.5054 17.1435V12.6505C16.5054 10.4425 16.0274 8.74455 13.4574 8.74455C12.2214 8.74455 11.3924 9.42255 11.0514 10.0665H11.0174V8.94755H8.58141V17.1425H11.1204V13.0875C11.1204 12.0175 11.3234 10.9825 12.6464 10.9825C13.9464 10.9825 13.9654 12.2055 13.9654 13.1565V17.1425H16.5054V17.1435Z" fill="white"/>
  </g>
  <defs>
    <clipPath id="clip0_529_1732">
      <rect width="20" height="20" fill="white" transform="translate(0 0.614746)"/>
    </clipPath>
  </defs>
</svg>