<svg width="164" height="36" viewBox="0 0 164 36" fill="none" xmlns="http://www.w3.org/2000/svg">
<g id="image" clip-path="url(#clip0_1_561)">
<g id="ss2232237071_1">
<path id="Vector" d="M28.1376 8.38014C28.8256 8.27514 29.4406 8.13714 30.0636 8.09414C33.3096 7.86914 36.1706 10.2831 36.5416 13.5321C36.9086 16.7501 34.6156 19.7961 31.3926 20.2141C30.1906 20.3701 28.9486 20.2401 27.6636 20.2401V14.6171H21.9016V14.0571C21.9016 11.5021 21.8836 8.94814 21.9076 6.39514C21.9276 4.24714 21.1946 2.42214 19.6556 0.915138C19.6016 0.864138 19.5586 0.802138 19.4746 0.702138C21.5306 -0.250862 23.5516 -0.282862 25.4466 0.891138C28.2666 2.63914 28.9686 5.23714 28.1396 8.37814L28.1376 8.38014Z" fill="#1730BE"/>
<path id="Vector_2" d="M8.87058 27.6041C8.45558 27.6791 8.15758 27.7181 7.86458 27.7851C4.66758 28.5211 1.51758 26.6031 0.604578 23.4591C-0.310422 20.3051 1.71358 16.6951 4.91958 16.0181C6.22358 15.7441 7.60458 15.8331 8.94958 15.7641C9.29858 15.7461 9.22558 16.0221 9.22758 16.2211C9.23158 17.7951 9.24758 19.3721 9.21958 20.9461C9.21158 21.4061 9.37458 21.5121 9.80258 21.5061C11.3726 21.4861 12.9396 21.5081 14.5086 21.4901C14.8736 21.4861 14.9826 21.5951 14.9816 21.9601C14.9676 24.4991 14.9816 27.0361 14.9716 29.5751C14.9636 31.6891 15.6396 33.5261 17.1376 35.0451C17.2096 35.1181 17.2646 35.2071 17.3636 35.3391C15.4356 36.2441 13.5646 36.2191 11.7236 35.2581C10.3666 34.5501 9.42758 33.4471 8.87858 32.0231C8.32658 30.5921 8.42558 29.1501 8.87058 27.6021V27.6041Z" fill="#00E7EC"/>
<path id="Vector_3" d="M1.04957 16.9101C0.124568 14.9591 0.116568 13.0311 1.20157 11.2281C2.93757 8.34614 5.57057 7.60214 8.83257 8.46814C8.75357 8.04014 8.70157 7.68714 8.62057 7.34214C7.95157 4.51314 9.77857 1.30914 12.5766 0.412135C15.9256 -0.660864 19.2386 0.921135 20.4136 4.20914C20.6396 4.84314 20.6736 5.55314 20.7226 6.23314C20.7746 6.93414 20.7106 7.64014 20.7466 8.34214C20.7686 8.77014 20.5996 8.84714 20.2126 8.84314C18.6296 8.82514 17.0466 8.84514 15.4636 8.82714C15.0786 8.82414 14.9576 8.95214 14.9616 9.32714C14.9776 10.8851 14.9556 12.4451 14.9776 14.0041C14.9826 14.4121 14.8896 14.5541 14.4476 14.5501C11.9416 14.5291 9.43557 14.5541 6.92957 14.5361C4.76957 14.5211 2.89457 15.1881 1.34057 16.7031C1.26957 16.7741 1.17457 16.8211 1.05357 16.9061L1.04957 16.9101Z" fill="#FFBE8F"/>
<path id="Vector_4" d="M35.8796 19.1332C36.6386 20.7252 36.7496 22.2952 36.1706 23.8952C35.5856 25.5072 34.4906 26.6672 32.9246 27.3972C31.3696 28.1212 29.7766 28.0342 28.0956 27.5702C28.1686 27.9772 28.2106 28.2882 28.2816 28.5922C29.0206 31.7252 27.0976 34.9112 23.8956 35.7872C20.6516 36.6742 17.1836 34.7072 16.4496 31.4452C16.1616 30.1702 16.2706 28.8052 16.2056 27.4812C16.1896 27.1702 16.4316 27.2152 16.6276 27.2152H21.2426C21.7276 27.2152 21.9706 26.9752 21.9706 26.4932C21.9706 24.9942 21.9826 23.4952 21.9626 21.9952C21.9586 21.6212 22.0586 21.4982 22.4486 21.5022C24.9726 21.5182 27.4946 21.5022 30.0186 21.5142C32.1746 21.5262 34.0576 20.8652 35.6036 19.3382C35.6666 19.2772 35.7456 19.2312 35.8766 19.1352L35.8796 19.1332Z" fill="#5A6CFF"/>
<path id="Vector_5" d="M48.4706 25.3092H45.1066V10.2352H48.4706V25.3092ZM50.8476 25.3092H46.0276V22.2712H50.8046C51.8206 22.2712 52.6366 22.1472 53.2486 21.9002C53.8596 21.6522 54.3106 21.2032 54.5956 20.5492C54.8786 19.8982 55.0226 18.9722 55.0226 17.7712C55.0226 16.5702 54.8816 15.6442 54.5956 14.9932C54.3106 14.3422 53.8626 13.8902 53.2486 13.6412C52.6336 13.3922 51.8206 13.2712 50.8046 13.2712H46.0276V10.2352H50.8476C52.4636 10.2352 53.8486 10.5362 55.0086 11.1352C56.1676 11.7342 57.0596 12.5972 57.6886 13.7222C58.3176 14.8482 58.6316 16.1972 58.6316 17.7712C58.6316 19.3452 58.3176 20.6972 57.6886 21.8192C57.0596 22.9452 56.1676 23.8082 55.0086 24.4062C53.8486 25.0062 52.4636 25.3072 50.8476 25.3072V25.3092ZM65.6746 25.5352C64.4626 25.5352 63.4236 25.2952 62.5556 24.8152C61.6876 24.3342 61.0266 23.6512 60.5706 22.7662C60.1146 21.8802 59.8866 20.8472 59.8866 19.6602C59.8866 18.4742 60.1146 17.4182 60.5706 16.5322C61.0266 15.6472 61.6876 14.9642 62.5556 14.4832C63.4206 14.0032 64.4626 13.7632 65.6746 13.7632C66.8856 13.7632 67.9126 14.0032 68.7586 14.4832C69.6036 14.9642 70.2526 15.6472 70.7086 16.5322C71.1646 17.4182 71.3916 18.4602 71.3916 19.6602C71.3916 20.8622 71.1646 21.8802 70.7086 22.7662C70.2526 23.6512 69.6006 24.3342 68.7586 24.8152C67.9126 25.2952 66.8856 25.5352 65.6746 25.5352ZM65.6746 22.5662C66.5856 22.5662 67.2206 22.3552 67.5816 21.9352C67.9386 21.5162 68.1206 20.7572 68.1206 19.6642C68.1206 18.5702 67.9416 17.7882 67.5816 17.3692C67.2236 16.9492 66.5856 16.7382 65.6746 16.7382C64.7626 16.7382 64.1216 16.9492 63.7556 17.3692C63.3896 17.7882 63.2046 18.5552 63.2046 19.6642C63.2046 20.7722 63.3866 21.5162 63.7556 21.9352C64.1216 22.3552 64.7626 22.5662 65.6746 22.5662ZM78.3676 25.5352C77.1276 25.5352 76.0806 25.2952 75.2296 24.8152C74.3786 24.3342 73.7346 23.6572 73.2986 22.7772C72.8666 21.9002 72.6506 20.8702 72.6506 19.6842C72.6506 18.4972 72.8776 17.4182 73.3336 16.5352C73.7896 15.6502 74.4586 14.9672 75.3416 14.4862C76.2246 14.0062 77.2916 13.7662 78.5496 13.7662C79.5506 13.7662 80.4456 13.9572 81.2306 14.3392C82.0146 14.7212 82.6326 15.2562 83.0796 15.9482C83.5266 16.6362 83.7516 17.4552 83.7516 18.3992V18.6682H80.3876V18.4892C80.3876 17.8432 80.2116 17.3982 79.8596 17.1492C79.5076 16.9002 78.9796 16.7782 78.2786 16.7782C77.4706 16.7782 76.8856 16.9952 76.5186 17.4292C76.1526 17.8632 75.9676 18.6072 75.9676 19.6582C75.9676 20.7082 76.1496 21.4462 76.5186 21.8742C76.8856 22.3032 77.4706 22.5172 78.2786 22.5172C78.9826 22.5172 79.5076 22.3922 79.8596 22.1472C80.2116 21.8982 80.3876 21.4522 80.3876 20.8062V20.6272H83.7516V20.8962C83.7516 21.8252 83.5206 22.6412 83.0566 23.3392C82.5916 24.0362 81.9576 24.5772 81.1496 24.9592C80.3416 25.3412 79.4156 25.5322 78.3676 25.5322V25.5352ZM92.5886 16.7842H84.2446V13.9942H92.5886V16.7842ZM90.3896 25.3562C88.9246 25.3562 87.8336 25.0632 87.1156 24.4792C86.3976 23.8942 86.0396 22.9342 86.0396 21.5992V14.3332L86.7576 11.3642H89.4036V21.2172C89.4036 21.7122 89.5216 22.0192 89.7606 22.1412C90.0006 22.2622 90.4796 22.3202 91.1976 22.3202H92.5886V25.1332C92.3206 25.1942 91.9856 25.2462 91.5906 25.2892C91.1946 25.3362 90.7936 25.3562 90.3896 25.3562ZM99.2066 25.5352C97.9946 25.5352 96.9566 25.2952 96.0876 24.8152C95.2196 24.3342 94.5586 23.6512 94.1026 22.7662C93.6476 21.8802 93.4196 20.8472 93.4196 19.6602C93.4196 18.4742 93.6476 17.4182 94.1026 16.5322C94.5586 15.6472 95.2196 14.9642 96.0876 14.4832C96.9536 14.0032 97.9946 13.7632 99.2066 13.7632C100.419 13.7632 101.446 14.0032 102.291 14.4832C103.136 14.9642 103.786 15.6472 104.241 16.5322C104.697 17.4182 104.925 18.4602 104.925 19.6602C104.925 20.8622 104.697 21.8802 104.241 22.7662C103.786 23.6512 103.134 24.3342 102.291 24.8152C101.446 25.2952 100.419 25.5352 99.2066 25.5352ZM99.2066 22.5662C100.119 22.5662 100.753 22.3552 101.114 21.9352C101.472 21.5162 101.653 20.7572 101.653 19.6642C101.653 18.5702 101.474 17.7882 101.114 17.3692C100.756 16.9492 100.119 16.7382 99.2066 16.7382C98.2946 16.7382 97.6546 16.9492 97.2876 17.3692C96.9216 17.7882 96.7366 18.5552 96.7366 19.6642C96.7366 20.7722 96.9186 21.5162 97.2876 21.9352C97.6546 22.3552 98.2946 22.5662 99.2066 22.5662ZM109.792 25.3092H106.451V13.9912H109.57V17.2092L109.795 17.3222V25.3092H109.792ZM109.792 18.2222H109.163V15.8152H109.703C109.985 15.2452 110.386 14.7612 110.903 14.3652C111.419 13.9682 112.071 13.7692 112.865 13.7692C113.658 13.7692 114.29 13.9452 114.76 14.2982C115.23 14.6512 115.571 15.1322 115.781 15.7392C115.992 16.3472 116.096 17.0332 116.096 17.7972V18.8332H112.755V18.2252C112.755 17.6122 112.651 17.1892 112.441 16.9662C112.23 16.7412 111.858 16.6282 111.318 16.6282C110.81 16.6282 110.43 16.7412 110.173 16.9662C109.919 17.1922 109.792 17.6122 109.792 18.2252V18.2222ZM129.552 25.3092H121.791V10.2352H129.194C130.27 10.2352 131.176 10.3652 131.909 10.6292C132.641 10.8922 133.195 11.3002 133.567 11.8562C133.94 12.4112 134.127 13.1232 134.127 13.9942C134.127 14.8652 133.876 15.6272 133.377 16.1882C132.875 16.7492 132.125 17.0912 131.124 17.2122V17.4382C132.336 17.5282 133.239 17.9182 133.839 18.6072C134.436 19.2962 134.736 20.1532 134.736 21.1712C134.736 22.0102 134.546 22.7432 134.165 23.3652C133.784 23.9872 133.207 24.4672 132.437 24.8062C131.666 25.1452 130.706 25.3122 129.554 25.3122L129.552 25.3092ZM125.155 13.2742V16.2002H128.969C129.598 16.2002 130.054 16.1012 130.336 15.9072C130.619 15.7132 130.763 15.3232 130.763 14.7382C130.763 14.1252 130.616 13.7252 130.325 13.5462C130.033 13.3662 129.58 13.2772 128.969 13.2772H125.155V13.2742ZM125.155 18.9432V22.2742H129.439C130.051 22.2742 130.524 22.1752 130.853 21.9812C131.182 21.7882 131.346 21.3362 131.346 20.6302C131.346 19.9242 131.184 19.4292 130.864 19.2352C130.541 19.0412 130.068 18.9432 129.439 18.9432H125.155ZM139.467 25.5352C138.466 25.5352 137.624 25.2722 136.943 24.7482C136.262 24.2242 135.922 23.4512 135.922 22.4302C135.922 21.8452 136.06 21.3362 136.337 20.8992C136.614 20.4652 137.018 20.1092 137.549 19.8312C138.08 19.5532 138.734 19.3572 139.511 19.2352L143.593 18.6272V20.8102L140.14 21.3502C139.796 21.4112 139.542 21.5012 139.378 21.6202C139.214 21.7412 139.13 21.9212 139.13 22.1612C139.13 22.4622 139.248 22.6702 139.488 22.7922C139.727 22.9132 140.093 22.9712 140.587 22.9712C141.051 22.9712 141.495 22.9132 141.923 22.8032C142.349 22.6912 142.696 22.4822 142.967 22.1722C143.235 21.8662 143.371 21.4202 143.371 20.8352L143.685 23.7822H143.304C143.111 24.0512 142.846 24.3232 142.508 24.5922C142.17 24.8612 141.758 25.0872 141.265 25.2662C140.772 25.4452 140.174 25.5352 139.47 25.5352H139.467ZM146.556 25.3092H143.437V23.3302L143.371 22.6792V18.2922C143.371 17.6322 143.198 17.2042 142.854 17.0102C142.511 16.8162 142.003 16.7182 141.328 16.7182C140.653 16.7182 140.168 16.8302 139.871 17.0562C139.571 17.2822 139.424 17.6782 139.424 18.2482V18.4972H136.216V18.2482C136.216 17.3482 136.435 16.5612 136.877 15.8872C137.318 15.2132 137.93 14.6922 138.717 14.3242C139.502 13.9572 140.425 13.7742 141.487 13.7742C142.548 13.7742 143.524 13.9652 144.279 14.3472C145.035 14.7292 145.604 15.2822 145.985 16.0002C146.365 16.7202 146.556 17.5892 146.556 18.6102V25.3152V25.3092ZM153.731 25.5352C152.444 25.5352 151.382 25.2952 150.546 24.8152C149.709 24.3342 149.089 23.6572 148.685 22.7772C148.281 21.8982 148.079 20.8702 148.079 19.6842C148.079 18.4972 148.307 17.4182 148.763 16.5352C149.219 15.6502 149.874 14.9672 150.725 14.4862C151.576 14.0062 152.585 13.7662 153.754 13.7662C154.922 13.7662 155.857 13.9772 156.659 14.3972C157.458 14.8162 158.073 15.3982 158.5 16.1422C158.927 16.8852 159.14 17.7512 159.14 18.7402C159.14 19.0562 159.12 19.3632 159.085 19.6642C159.048 19.9642 159.013 20.2102 158.984 20.4072H149.565V18.3582H156.114L155.889 18.5382C155.95 18.1042 155.9 17.7392 155.742 17.4472C155.583 17.1542 155.329 16.9292 154.98 16.7732C154.631 16.6162 154.184 16.5352 153.644 16.5352C152.718 16.5352 152.081 16.7462 151.737 17.1662C151.394 17.5862 151.221 18.1882 151.221 18.9662V19.9562C151.221 20.5872 151.293 21.0962 151.434 21.4872C151.576 21.8772 151.835 22.1612 152.208 22.3402C152.58 22.5202 153.105 22.6092 153.777 22.6092C154.449 22.6092 154.94 22.5312 155.246 22.3722C155.551 22.2162 155.704 21.9642 155.704 21.6202V21.4842H159.025V21.7092C159.025 22.5202 158.809 23.2092 158.376 23.7792C157.943 24.3492 157.328 24.7832 156.535 25.0842C155.742 25.3852 154.807 25.5322 153.731 25.5322V25.5352Z" fill="white"/>
</g>
</g>
<defs>
<clipPath id="clip0_1_561">
<rect width="163" height="36" fill="white" transform="translate(0.370605 0.00012207)"/>
</clipPath>
</defs>
</svg>
