<svg xmlns="http://www.w3.org/2000/svg" width="20" height="21" viewBox="0 0 20 21" fill="none">
  <g clip-path="url(#clip0_529_1728)">
    <path d="M3.561 1.61475C1.871 1.61475 0.5 2.98575 0.5 4.67575V17.5537C0.5 19.2437 1.871 20.6147 3.561 20.6147H16.439C18.129 20.6147 19.5 19.2437 19.5 17.5537V4.67575C19.5 2.98575 18.129 1.61475 16.439 1.61475H3.561ZM3.563 5.30875H7.76L10.643 9.16375L14.211 5.30875H15.982L11.434 10.2217L16.45 16.9287H12.253L9.113 12.7297L5.227 16.9287H3.456L8.322 11.6717L3.563 5.30875ZM6.164 6.61175L12.905 15.6257H13.849L7.107 6.61175H6.164Z" fill="white"/>
  </g>
  <defs>
    <clipPath id="clip0_529_1728">
      <rect width="20" height="20" fill="white" transform="translate(0 0.614746)"/>
    </clipPath>
  </defs>
</svg>