<svg width="57" height="61" viewBox="0 0 57 61" fill="none" xmlns="http://www.w3.org/2000/svg">
<g id="Vector ">
<path id="Vector" fill-rule="evenodd" clip-rule="evenodd" d="M11.0537 19.5586C11.9559 19.3405 12.878 19.2308 13.803 19.2313C21.1281 19.2313 27.0646 26.0157 27.0646 34.3812C27.0646 42.7492 21.1281 49.5336 13.803 49.5336C6.47786 49.5336 0.539062 42.7517 0.539062 34.3812C0.539062 34.1364 0.543746 33.8891 0.555455 33.6443H0.539062C0.539062 21.0173 9.53156 10.7434 20.5848 10.7434V15.8292C16.9996 15.8292 13.6929 17.223 11.0537 19.5586ZM40.7337 19.5586C41.6189 19.3437 42.5368 19.2313 43.4782 19.2313C50.8034 19.2313 56.7422 26.0157 56.7422 34.3812C56.7422 42.7492 50.8034 49.5336 43.4782 49.5336C36.1531 49.5336 30.2167 42.7517 30.2167 34.3812C30.2167 34.1364 30.2213 33.8891 30.233 33.6443H30.2167C30.2167 21.0173 39.2092 10.7434 50.2624 10.7434V15.8292C46.6748 15.8292 43.3729 17.223 40.7337 19.5586Z" fill="#F2FFA0"/>
</g>
</svg>
