<svg width="176" height="34" viewBox="0 0 176 34" fill="none" xmlns="http://www.w3.org/2000/svg">
<g id="Main Logo">
<path id="Vector" d="M25.5978 7.72762C26.2321 7.63082 26.799 7.5036 27.3734 7.46395C30.3659 7.25653 33.0035 9.48201 33.3455 12.4773C33.6838 15.444 31.5699 18.2521 28.5986 18.6375C27.4905 18.7813 26.3455 18.6614 25.1608 18.6614V13.4776H19.8488V12.9613C19.8488 10.6058 19.8322 8.25126 19.8543 5.89763C19.8728 3.91738 19.197 2.2349 17.7782 0.845585C17.7284 0.798568 17.6888 0.74141 17.6113 0.649219C19.5068 -0.229358 21.3699 -0.258859 23.1169 0.823459C25.7167 2.43495 26.3639 4.83007 25.5996 7.72578L25.5978 7.72762Z" fill="#1730BE"/>
<path id="Vector_2" d="M7.83573 25.4503C7.45314 25.5195 7.17841 25.5554 6.9083 25.6172C3.96097 26.2957 1.05696 24.5275 0.215265 21.629C-0.628278 18.7213 1.23766 15.3932 4.19329 14.7691C5.39545 14.5165 6.6686 14.5986 7.90856 14.535C8.23031 14.5184 8.16301 14.7728 8.16485 14.9563C8.16854 16.4073 8.18329 17.8612 8.15748 19.3123C8.1501 19.7363 8.30037 19.8341 8.69495 19.8285C10.1423 19.8101 11.587 19.8304 13.0334 19.8138C13.3699 19.8101 13.4704 19.9106 13.4695 20.2471C13.4566 22.5878 13.4695 24.9267 13.4603 27.2674C13.4529 29.2163 14.0761 30.9099 15.4571 32.3102C15.5235 32.3775 15.5742 32.4596 15.6655 32.5813C13.888 33.4156 12.1632 33.3926 10.4659 32.5066C9.2149 31.8539 8.34923 30.837 7.84311 29.5242C7.33422 28.205 7.42548 26.8756 7.83573 25.4485V25.4503Z" fill="#00E7EC"/>
<path id="Vector_3" d="M0.62669 15.5916C-0.226072 13.7929 -0.233447 12.0155 0.76682 10.3533C2.36725 7.69635 4.79462 7.01045 7.80188 7.80882C7.72905 7.41425 7.68111 7.08881 7.60643 6.77075C6.98968 4.16268 8.674 1.20889 11.2535 0.381939C14.341 -0.607267 17.3952 0.85119 18.4785 3.88242C18.6868 4.46691 18.7182 5.12146 18.7633 5.74836C18.8113 6.39462 18.7523 7.04548 18.7855 7.69266C18.8057 8.08724 18.6499 8.15822 18.2932 8.15454C16.8338 8.13794 15.3744 8.15638 13.915 8.13979C13.5601 8.13702 13.4485 8.25502 13.4522 8.60074C13.467 10.0371 13.4467 11.4752 13.467 12.9125C13.4716 13.2886 13.3859 13.4195 12.9784 13.4159C10.6681 13.3965 8.35779 13.4195 6.04749 13.403C4.05618 13.3891 2.32761 14.004 0.894965 15.4007C0.829509 15.4662 0.741929 15.5095 0.630378 15.5879L0.62669 15.5916Z" fill="#FFBE8F"/>
<path id="Vector_4" d="M32.7359 17.641C33.4356 19.1087 33.538 20.5561 33.0042 22.0311C32.4649 23.5172 31.4554 24.5866 30.0117 25.2596C28.5781 25.9271 27.1095 25.8469 25.5598 25.4191C25.6271 25.7943 25.6658 26.081 25.7313 26.3613C26.4126 29.2496 24.6397 32.1868 21.6878 32.9944C18.6971 33.8122 15.5 31.9988 14.8233 28.9915C14.5578 27.8161 14.6583 26.5577 14.5984 25.3371C14.5836 25.0504 14.8067 25.0918 14.9874 25.0918H19.242C19.6891 25.0918 19.9131 24.8706 19.9131 24.4262C19.9131 23.0443 19.9242 21.6623 19.9058 20.2795C19.9021 19.9347 19.9943 19.8213 20.3538 19.825C22.6807 19.8397 25.0057 19.825 27.3326 19.8361C29.3203 19.8471 31.0562 19.2377 32.4815 17.83C32.5395 17.7737 32.6124 17.7313 32.7331 17.6428L32.7359 17.641Z" fill="#5A6CFF"/>
<path id="Vector_5" d="M45.2176 25.2637H41.2422V7.45007H45.2176V25.2637ZM48.0266 25.2637H42.3306V21.6735H47.9757C49.1764 21.6735 50.1407 21.527 50.8639 21.2351C51.586 20.942 52.1189 20.4114 52.4557 19.6386C52.7902 18.8693 52.9603 17.775 52.9603 16.3557C52.9603 14.9364 52.7937 13.8421 52.4557 13.0728C52.1189 12.3035 51.5895 11.7693 50.8639 11.4751C50.1371 11.1808 49.1764 11.0378 47.9757 11.0378H42.3306V7.45007H48.0266C49.9363 7.45007 51.573 7.80578 52.9438 8.51364C54.3134 9.22151 55.3675 10.2413 56.1108 11.5708C56.8542 12.9015 57.2252 14.4956 57.2252 16.3557C57.2252 18.2158 56.8542 19.8135 56.1108 21.1394C55.3675 22.47 54.3134 23.4899 52.9438 24.1966C51.573 24.9056 49.9363 25.2613 48.0266 25.2613V25.2637ZM65.5482 25.5307C64.116 25.5307 62.8881 25.2471 61.8624 24.6799C60.8366 24.1115 60.0555 23.3043 59.5166 22.2585C58.9777 21.2115 58.7083 19.9907 58.7083 18.588C58.7083 17.1865 58.9777 15.9385 59.5166 14.8915C60.0555 13.8457 60.8366 13.0385 61.8624 12.4701C62.8846 11.9029 64.116 11.6193 65.5482 11.6193C66.9793 11.6193 68.193 11.9029 69.1927 12.4701C70.1913 13.0385 70.9582 13.8457 71.4971 14.8915C72.036 15.9385 72.3042 17.1699 72.3042 18.588C72.3042 20.0085 72.036 21.2115 71.4971 22.2585C70.9582 23.3043 70.1877 24.1115 69.1927 24.6799C68.193 25.2471 66.9793 25.5307 65.5482 25.5307ZM65.5482 22.0221C66.6248 22.0221 67.3752 21.7728 67.8018 21.2765C68.2237 20.7813 68.4388 19.8844 68.4388 18.5927C68.4388 17.2999 68.2272 16.3758 67.8018 15.8806C67.3787 15.3843 66.6248 15.1349 65.5482 15.1349C64.4705 15.1349 63.713 15.3843 63.2805 15.8806C62.8479 16.3758 62.6293 17.2822 62.6293 18.5927C62.6293 19.9021 62.8444 20.7813 63.2805 21.2765C63.713 21.7728 64.4705 22.0221 65.5482 22.0221ZM80.5481 25.5307C79.0827 25.5307 77.8454 25.2471 76.8398 24.6799C75.8341 24.1115 75.0731 23.3114 74.5578 22.2715C74.0473 21.2351 73.792 20.0179 73.792 18.6164C73.792 17.2136 74.0603 15.9385 74.5992 14.8951C75.138 13.8492 75.9286 13.0421 76.9721 12.4737C78.0156 11.9064 79.2765 11.6228 80.7631 11.6228C81.9461 11.6228 83.0037 11.8485 83.9314 12.2999C84.8579 12.7514 85.5882 13.3836 86.1164 14.2014C86.6447 15.0144 86.9105 15.9823 86.9105 17.0978V17.4157H82.9352V17.2042C82.9352 16.4408 82.7272 15.9149 82.3112 15.6206C81.8952 15.3264 81.2713 15.1822 80.4429 15.1822C79.488 15.1822 78.7967 15.4387 78.363 15.9515C77.9305 16.4644 77.7119 17.3436 77.7119 18.5856C77.7119 19.8265 77.927 20.6986 78.363 21.2044C78.7967 21.7113 79.488 21.9642 80.4429 21.9642C81.2748 21.9642 81.8952 21.8165 82.3112 21.527C82.7272 21.2327 82.9352 20.7057 82.9352 19.9423V19.7307H86.9105V20.0486C86.9105 21.1465 86.6376 22.1108 86.0892 22.9356C85.5397 23.7593 84.7905 24.3986 83.8357 24.8501C82.8808 25.3015 81.7865 25.5272 80.5481 25.5272V25.5307ZM97.3536 15.1893H87.4931V11.8922H97.3536V15.1893ZM94.7549 25.3192C93.0237 25.3192 91.7344 24.973 90.8859 24.2828C90.0374 23.5915 89.6144 22.457 89.6144 20.8794V12.2929L90.4629 8.78426H93.5897V20.428C93.5897 21.0129 93.7292 21.3757 94.0116 21.5199C94.2952 21.6629 94.8613 21.7314 95.7098 21.7314H97.3536V25.0557C97.0369 25.1278 96.641 25.1892 96.1742 25.24C95.7062 25.2956 95.2324 25.3192 94.7549 25.3192ZM105.174 25.5307C103.742 25.5307 102.515 25.2471 101.488 24.6799C100.463 24.1115 99.6816 23.3043 99.1427 22.2585C98.6051 21.2115 98.3356 19.9907 98.3356 18.588C98.3356 17.1865 98.6051 15.9385 99.1427 14.8915C99.6816 13.8457 100.463 13.0385 101.488 12.4701C102.512 11.9029 103.742 11.6193 105.174 11.6193C106.607 11.6193 107.82 11.9029 108.819 12.4701C109.817 13.0385 110.586 13.8457 111.123 14.8915C111.662 15.9385 111.932 17.1699 111.932 18.588C111.932 20.0085 111.662 21.2115 111.123 22.2585C110.586 23.3043 109.815 24.1115 108.819 24.6799C107.82 25.2471 106.607 25.5307 105.174 25.5307ZM105.174 22.0221C106.252 22.0221 107.001 21.7728 107.428 21.2765C107.851 20.7813 108.065 19.8844 108.065 18.5927C108.065 17.2999 107.853 16.3758 107.428 15.8806C107.005 15.3843 106.252 15.1349 105.174 15.1349C104.097 15.1349 103.34 15.3843 102.907 15.8806C102.474 16.3758 102.255 17.2822 102.255 18.5927C102.255 19.9021 102.471 20.7813 102.907 21.2765C103.34 21.7728 104.097 22.0221 105.174 22.0221ZM117.683 25.2637H113.735V11.8887H117.421V15.6915L117.687 15.8251V25.2637H117.683ZM117.683 16.8887H116.94V14.0442H117.578C117.911 13.3706 118.385 12.7986 118.996 12.3307C119.606 11.8615 120.376 11.6264 121.315 11.6264C122.252 11.6264 122.999 11.8343 123.554 12.2515C124.109 12.6686 124.512 13.2371 124.761 13.9544C125.01 14.6729 125.133 15.4836 125.133 16.3864V17.6107H121.185V16.8922C121.185 16.1678 121.062 15.6679 120.813 15.4044C120.564 15.1385 120.125 15.005 119.486 15.005C118.886 15.005 118.437 15.1385 118.133 15.4044C117.833 15.6715 117.683 16.1678 117.683 16.8922V16.8887ZM141.034 25.2637H131.863V7.45007H140.611C141.883 7.45007 142.953 7.6037 143.82 7.91568C144.685 8.22648 145.339 8.70863 145.779 9.36568C146.22 10.0215 146.441 10.8629 146.441 11.8922C146.441 12.9215 146.144 13.822 145.554 14.485C144.961 15.1479 144.075 15.5521 142.892 15.6951V15.9622C144.324 16.0685 145.391 16.5294 146.1 17.3436C146.806 18.1578 147.16 19.1706 147.16 20.3736C147.16 21.3651 146.936 22.2313 146.486 22.9664C146.035 23.7014 145.354 24.2686 144.444 24.6692C143.532 25.0699 142.398 25.2672 141.037 25.2672L141.034 25.2637ZM135.838 11.0414V14.4992H140.345C141.089 14.4992 141.627 14.3822 141.961 14.1529C142.295 13.9237 142.465 13.4628 142.465 12.7715C142.465 12.0471 142.292 11.5744 141.948 11.3628C141.603 11.1501 141.067 11.0449 140.345 11.0449H135.838V11.0414ZM135.838 17.7407V21.6771H140.901C141.624 21.6771 142.183 21.5601 142.572 21.3308C142.96 21.1027 143.154 20.5686 143.154 19.7343C143.154 18.9 142.963 18.315 142.585 18.0858C142.203 17.8565 141.644 17.7407 140.901 17.7407H135.838ZM152.751 25.5307C151.568 25.5307 150.573 25.2199 149.769 24.6007C148.964 23.9815 148.562 23.068 148.562 21.8614C148.562 21.1701 148.725 20.5686 149.052 20.0522C149.38 19.5393 149.857 19.1186 150.485 18.7901C151.112 18.4616 151.885 18.2299 152.803 18.0858L157.627 17.3673V19.947L153.547 20.5851C153.14 20.6572 152.84 20.7636 152.646 20.9042C152.452 21.0472 152.353 21.2599 152.353 21.5435C152.353 21.8992 152.492 22.145 152.776 22.2892C153.058 22.4322 153.491 22.5007 154.075 22.5007C154.623 22.5007 155.148 22.4322 155.654 22.3022C156.157 22.1699 156.567 21.9229 156.887 21.5565C157.204 21.1949 157.365 20.6679 157.365 19.9765L157.736 23.4591H157.286C157.057 23.777 156.744 24.0985 156.345 24.4164C155.945 24.7342 155.459 25.0013 154.876 25.2128C154.293 25.4244 153.587 25.5307 152.755 25.5307H152.751ZM161.129 25.2637H157.443V22.925L157.365 22.1557V16.9714C157.365 16.1914 157.16 15.6856 156.754 15.4564C156.348 15.2271 155.748 15.1113 154.95 15.1113C154.153 15.1113 153.58 15.2437 153.229 15.5107C152.874 15.7778 152.7 16.2458 152.7 16.9194V17.2136H148.909V16.9194C148.909 15.8558 149.168 14.9258 149.691 14.1293C150.212 13.3328 150.935 12.7171 151.865 12.2822C152.793 11.8485 153.883 11.6323 155.138 11.6323C156.392 11.6323 157.546 11.858 158.438 12.3094C159.331 12.7608 160.004 13.4143 160.454 14.2628C160.903 15.1137 161.129 16.1406 161.129 17.3472V25.2708V25.2637ZM169.608 25.5307C168.087 25.5307 166.832 25.2471 165.844 24.6799C164.855 24.1115 164.122 23.3114 163.644 22.2715C163.167 21.2327 162.928 20.0179 162.928 18.6164C162.928 17.2136 163.198 15.9385 163.737 14.8951C164.276 13.8492 165.05 13.0421 166.055 12.4737C167.061 11.9064 168.253 11.6228 169.635 11.6228C171.015 11.6228 172.12 11.8722 173.068 12.3685C174.012 12.8636 174.739 13.5514 175.243 14.4306C175.748 15.3087 176 16.3321 176 17.5008C176 17.8742 175.976 18.237 175.935 18.5927C175.891 18.9472 175.85 19.238 175.815 19.4708H164.684V17.0494H172.424L172.158 17.2621C172.23 16.7492 172.171 16.3179 171.984 15.9728C171.796 15.6266 171.496 15.3607 171.084 15.1763C170.671 14.9908 170.143 14.8951 169.505 14.8951C168.41 14.8951 167.658 15.1444 167.251 15.6407C166.846 16.1371 166.641 16.8485 166.641 17.7679V18.9378C166.641 19.6835 166.726 20.285 166.893 20.747C167.061 21.2079 167.367 21.5435 167.808 21.7551C168.247 21.9678 168.868 22.073 169.662 22.073C170.456 22.073 171.036 21.9808 171.398 21.7929C171.758 21.6085 171.939 21.3107 171.939 20.9042V20.7435H175.864V21.0094C175.864 21.9678 175.608 22.782 175.097 23.4556C174.585 24.1292 173.858 24.6421 172.921 24.9978C171.984 25.3535 170.879 25.5272 169.608 25.5272V25.5307Z" fill="#151561"/>
</g>
</svg>
